<svg width="155" height="58" viewBox="0 0 155 58" fill="none" xmlns="http://www.w3.org/2000/svg"><g clip-path="url(#clip0_3_7885)"><path fill="#64E394" d="M0 0h155v58H0z"/><path d="M77.5-61.476h-99.889V68.182H77.5V-61.476Z" fill="url(#paint0_radial_3_7885)"/><path d="M96.445 13.413H4.305V133.01h92.14V13.413Z" fill="url(#paint1_radial_3_7885)"/><path d="M50.806-6.706H-50.805v136.364h101.61V-6.706Z" fill="url(#paint2_radial_3_7885)"/><path d="M137.778 0H51.667v111.774h86.111V0Z" fill="url(#paint3_radial_3_7885)"/><path d="M167.917 6.706h-93v120.716h93V6.706Z" fill="url(#paint4_radial_3_7885)"/><path d="M188.583-26.825h-86.111V84.949h86.111V-26.825Z" fill="url(#paint5_radial_3_7885)"/><path d="M79.222-49.181H10.334v89.419h68.888v-89.42Z" fill="url(#paint6_radial_3_7885)"/><path d="M134.333-49.181H38.75V53.65h95.583V-49.181Z" fill="url(#paint7_radial_3_7885)"/><path d="M165.333-86.065H70.611V58.123h94.722V-86.065Z" fill="url(#paint8_radial_3_7885)"/></g><defs><radialGradient id="paint0_radial_3_7885" cx="0" cy="0" r="1" gradientUnits="userSpaceOnUse" gradientTransform="matrix(49.9445 0 0 64.8288 27.555 3.353)"><stop offset=".15" stop-color="#42E3B4"/><stop offset="1" stop-color="#42E3B4" stop-opacity="0"/></radialGradient><radialGradient id="paint1_radial_3_7885" cx="0" cy="0" r="1" gradientUnits="userSpaceOnUse" gradientTransform="matrix(46.0695 0 0 59.7989 50.375 73.212)"><stop offset=".01" stop-color="#A0E720"/><stop offset="1" stop-color="#A0E720" stop-opacity="0"/></radialGradient><radialGradient id="paint2_radial_3_7885" cx="0" cy="0" r="1" gradientUnits="userSpaceOnUse" gradientTransform="matrix(50.8056 0 0 68.182 0 61.476)"><stop offset=".1" stop-color="#E6FA00"/><stop offset="1" stop-color="#FAED00" stop-opacity="0"/></radialGradient><radialGradient id="paint3_radial_3_7885" cx="0" cy="0" r="1" gradientUnits="userSpaceOnUse" gradientTransform="matrix(43.0556 0 0 55.8869 94.722 55.887)"><stop offset=".15" stop-color="#00D900"/><stop offset="1" stop-color="#00D900" stop-opacity="0"/></radialGradient><radialGradient id="paint4_radial_3_7885" cx="0" cy="0" r="1" gradientUnits="userSpaceOnUse" gradientTransform="matrix(46.5 0 0 60.3578 121.417 67.064)"><stop offset=".15" stop-color="#06B52A"/><stop offset="1" stop-color="#05B827" stop-opacity="0"/></radialGradient><radialGradient id="paint5_radial_3_7885" cx="0" cy="0" r="1" gradientUnits="userSpaceOnUse" gradientTransform="matrix(43.0556 0 0 55.8869 145.528 29.062)"><stop offset=".15" stop-color="#289E2E"/><stop offset="1" stop-color="#269F2C" stop-opacity="0"/></radialGradient><radialGradient id="paint6_radial_3_7885" cx="0" cy="0" r="1" gradientUnits="userSpaceOnUse" gradientTransform="matrix(34.4444 0 0 44.7095 44.778 -4.472)"><stop offset=".15" stop-color="#37D2C4"/><stop offset="1" stop-color="#38D3C5" stop-opacity="0"/></radialGradient><radialGradient id="paint7_radial_3_7885" cx="0" cy="0" r="1" gradientUnits="userSpaceOnUse" gradientTransform="matrix(47.7917 0 0 51.4159 86.542 2.235)"><stop offset=".1" stop-color="#02AAF5"/><stop offset="1" stop-color="#03ABF6" stop-opacity="0"/></radialGradient><radialGradient id="paint8_radial_3_7885" cx="0" cy="0" r="1" gradientUnits="userSpaceOnUse" gradientTransform="matrix(47.3611 0 0 72.0941 117.972 -13.971)"><stop offset=".2" stop-color="#0087CD"/><stop offset=".9" stop-color="#0087CD" stop-opacity="0"/></radialGradient><clipPath id="clip0_3_7885"><path fill="#fff" d="M0 0h155v58H0z"/></clipPath></defs></svg>